<svg width="1200" height="600" viewBox="0 0 1200 600" fill="none" xmlns="http://www.w3.org/2000/svg">
  <defs>
    <linearGradient id="bgGradient" x1="0" y1="0" x2="1200" y2="600" gradientUnits="userSpaceOnUse">
      <stop stop-color="#0f172a" />
      <stop offset="1" stop-color="#1d4ed8" />
    </linearGradient>
  </defs>
  <rect width="1200" height="600" rx="30" fill="url(#bgGradient)" />
  <circle cx="240" cy="180" r="110" fill="#f8fafc" opacity="0.12" />
  <circle cx="920" cy="140" r="90" fill="#fecdd3" opacity="0.15" />
  <path d="M300 320C240 270 170 290 140 360C110 430 170 500 240 520C310 540 390 510 430 450C470 390 380 360 300 320Z" fill="#fee2e2" />
  <path d="M670 420C700 360 760 340 820 360C880 380 910 430 890 480C870 530 820 560 760 560C700 560 660 520 670 420Z" fill="#e0f2fe" />
  <path d="M500 190C520 130 600 120 660 140C720 160 760 230 740 290C720 350 660 380 600 390C540 400 480 350 500 290C520 240 520 220 500 190Z" fill="#d9f99d" />
  <text x="70" y="120" fill="#ffffff" font-size="48" font-weight="700" font-family="Arial, sans-serif">Sport Store</text>
  <text x="70" y="180" fill="#c7d2fe" font-size="24" font-family="Arial, sans-serif">Inventario de artículos deportivos para la mejor gestión</text>
  <g transform="translate(780 240)">
    <rect x="0" y="0" width="300" height="160" rx="24" fill="#ffffff" opacity="0.16" />
    <text x="24" y="52" fill="#ffffff" font-size="34" font-weight="700" font-family="Arial, sans-serif">Calzado</text>
    <text x="24" y="96" fill="#f8fafc" font-size="18" font-family="Arial, sans-serif">Ropa</text>
    <text x="24" y="130" fill="#f8fafc" font-size="18" font-family="Arial, sans-serif">Accesorios</text>
  </g>
</svg>
